<mxfile host="app.diagrams.net" agent="Mozilla/5.0 (Windows NT 10.0; Win64; x64) AppleWebKit/537.36 (KHTML, like Gecko) Chrome/131.0.0.0 Safari/537.36" version="24.8.6">
  <diagram name="Halaman-1" id="YDQiy02J4WMnUg8wwacr">
    <mxGraphModel dx="332" dy="177" grid="1" gridSize="10" guides="1" tooltips="1" connect="1" arrows="1" fold="1" page="1" pageScale="1" pageWidth="827" pageHeight="1169" math="0" shadow="0">
      <root>
        <mxCell id="0" />
        <mxCell id="1" parent="0" />
        <mxCell id="SAdLbus_zGd10lb0x6KH-3" value="User" style="swimlane;whiteSpace=wrap;html=1;" vertex="1" parent="1">
          <mxGeometry x="90" y="60" width="220" height="620" as="geometry" />
        </mxCell>
        <mxCell id="SAdLbus_zGd10lb0x6KH-10" style="edgeStyle=orthogonalEdgeStyle;rounded=0;orthogonalLoop=1;jettySize=auto;html=1;entryX=0.5;entryY=0;entryDx=0;entryDy=0;" edge="1" parent="SAdLbus_zGd10lb0x6KH-3" source="SAdLbus_zGd10lb0x6KH-8" target="SAdLbus_zGd10lb0x6KH-9">
          <mxGeometry relative="1" as="geometry" />
        </mxCell>
        <mxCell id="SAdLbus_zGd10lb0x6KH-8" value="" style="shape=umlActor;verticalLabelPosition=bottom;verticalAlign=top;html=1;outlineConnect=0;" vertex="1" parent="SAdLbus_zGd10lb0x6KH-3">
          <mxGeometry x="100" y="40" width="20" height="40" as="geometry" />
        </mxCell>
        <mxCell id="SAdLbus_zGd10lb0x6KH-12" style="edgeStyle=orthogonalEdgeStyle;rounded=0;orthogonalLoop=1;jettySize=auto;html=1;entryX=0.5;entryY=0;entryDx=0;entryDy=0;" edge="1" parent="SAdLbus_zGd10lb0x6KH-3" source="SAdLbus_zGd10lb0x6KH-9" target="SAdLbus_zGd10lb0x6KH-11">
          <mxGeometry relative="1" as="geometry" />
        </mxCell>
        <mxCell id="SAdLbus_zGd10lb0x6KH-9" value="Login" style="rounded=1;whiteSpace=wrap;html=1;" vertex="1" parent="SAdLbus_zGd10lb0x6KH-3">
          <mxGeometry x="15" y="110" width="190" height="30" as="geometry" />
        </mxCell>
        <mxCell id="SAdLbus_zGd10lb0x6KH-11" value="masukan Username&amp;amp;Password" style="rounded=1;whiteSpace=wrap;html=1;" vertex="1" parent="SAdLbus_zGd10lb0x6KH-3">
          <mxGeometry x="15" y="170" width="190" height="30" as="geometry" />
        </mxCell>
        <mxCell id="SAdLbus_zGd10lb0x6KH-29" value="buat prediksi diabetes" style="rounded=1;whiteSpace=wrap;html=1;" vertex="1" parent="SAdLbus_zGd10lb0x6KH-3">
          <mxGeometry x="15" y="280" width="185" height="30" as="geometry" />
        </mxCell>
        <mxCell id="SAdLbus_zGd10lb0x6KH-31" style="edgeStyle=orthogonalEdgeStyle;rounded=0;orthogonalLoop=1;jettySize=auto;html=1;entryX=0;entryY=0.75;entryDx=0;entryDy=0;exitX=0.564;exitY=0.98;exitDx=0;exitDy=0;exitPerimeter=0;" edge="1" parent="SAdLbus_zGd10lb0x6KH-3" source="SAdLbus_zGd10lb0x6KH-29">
          <mxGeometry relative="1" as="geometry">
            <mxPoint x="140" y="310" as="sourcePoint" />
            <mxPoint x="244" y="342.4999999999999" as="targetPoint" />
            <Array as="points">
              <mxPoint x="119" y="342" />
            </Array>
          </mxGeometry>
        </mxCell>
        <mxCell id="SAdLbus_zGd10lb0x6KH-4" value="Frontend" style="swimlane;whiteSpace=wrap;html=1;" vertex="1" parent="1">
          <mxGeometry x="310" y="60" width="200" height="620" as="geometry" />
        </mxCell>
        <mxCell id="SAdLbus_zGd10lb0x6KH-14" value="Post login(username&amp;amp;password)" style="rounded=1;whiteSpace=wrap;html=1;" vertex="1" parent="SAdLbus_zGd10lb0x6KH-4">
          <mxGeometry x="30" y="170" width="160" height="30" as="geometry" />
        </mxCell>
        <mxCell id="SAdLbus_zGd10lb0x6KH-28" style="edgeStyle=orthogonalEdgeStyle;rounded=0;orthogonalLoop=1;jettySize=auto;html=1;" edge="1" parent="SAdLbus_zGd10lb0x6KH-4" source="SAdLbus_zGd10lb0x6KH-26">
          <mxGeometry relative="1" as="geometry">
            <mxPoint x="-20" y="295" as="targetPoint" />
          </mxGeometry>
        </mxCell>
        <mxCell id="SAdLbus_zGd10lb0x6KH-26" value="login berhasil arahkan ke dashboard" style="rounded=1;whiteSpace=wrap;html=1;" vertex="1" parent="SAdLbus_zGd10lb0x6KH-4">
          <mxGeometry x="24" y="280" width="160" height="30" as="geometry" />
        </mxCell>
        <mxCell id="SAdLbus_zGd10lb0x6KH-32" value="login berhasil arahkan ke dashboard" style="rounded=1;whiteSpace=wrap;html=1;" vertex="1" parent="SAdLbus_zGd10lb0x6KH-4">
          <mxGeometry x="24" y="327" width="160" height="30" as="geometry" />
        </mxCell>
        <mxCell id="SAdLbus_zGd10lb0x6KH-5" value="Backend" style="swimlane;whiteSpace=wrap;html=1;" vertex="1" parent="1">
          <mxGeometry x="510" y="60" width="200" height="620" as="geometry" />
        </mxCell>
        <mxCell id="SAdLbus_zGd10lb0x6KH-20" style="edgeStyle=orthogonalEdgeStyle;rounded=0;orthogonalLoop=1;jettySize=auto;html=1;" edge="1" parent="SAdLbus_zGd10lb0x6KH-5" source="SAdLbus_zGd10lb0x6KH-17">
          <mxGeometry relative="1" as="geometry">
            <mxPoint x="100" y="230" as="targetPoint" />
          </mxGeometry>
        </mxCell>
        <mxCell id="SAdLbus_zGd10lb0x6KH-17" value="pengecekan username&amp;amp;password diDatabase" style="rounded=1;whiteSpace=wrap;html=1;" vertex="1" parent="SAdLbus_zGd10lb0x6KH-5">
          <mxGeometry x="20" y="162.5" width="160" height="45" as="geometry" />
        </mxCell>
        <mxCell id="SAdLbus_zGd10lb0x6KH-24" value="" style="edgeStyle=orthogonalEdgeStyle;rounded=0;orthogonalLoop=1;jettySize=auto;html=1;" edge="1" parent="SAdLbus_zGd10lb0x6KH-5" source="SAdLbus_zGd10lb0x6KH-19" target="SAdLbus_zGd10lb0x6KH-21">
          <mxGeometry relative="1" as="geometry" />
        </mxCell>
        <mxCell id="SAdLbus_zGd10lb0x6KH-19" value="buat JWT token" style="rounded=1;whiteSpace=wrap;html=1;" vertex="1" parent="SAdLbus_zGd10lb0x6KH-5">
          <mxGeometry x="20" y="230" width="160" height="25" as="geometry" />
        </mxCell>
        <mxCell id="SAdLbus_zGd10lb0x6KH-21" value="kirim data user dan JWT token" style="rounded=1;whiteSpace=wrap;html=1;" vertex="1" parent="SAdLbus_zGd10lb0x6KH-5">
          <mxGeometry x="20" y="280" width="160" height="30" as="geometry" />
        </mxCell>
        <mxCell id="SAdLbus_zGd10lb0x6KH-13" style="edgeStyle=orthogonalEdgeStyle;rounded=0;orthogonalLoop=1;jettySize=auto;html=1;entryX=0;entryY=0.5;entryDx=0;entryDy=0;" edge="1" parent="1" source="SAdLbus_zGd10lb0x6KH-11" target="SAdLbus_zGd10lb0x6KH-14">
          <mxGeometry relative="1" as="geometry">
            <mxPoint x="320" y="245" as="targetPoint" />
          </mxGeometry>
        </mxCell>
        <mxCell id="SAdLbus_zGd10lb0x6KH-18" style="edgeStyle=orthogonalEdgeStyle;rounded=0;orthogonalLoop=1;jettySize=auto;html=1;entryX=0;entryY=0.5;entryDx=0;entryDy=0;" edge="1" parent="1" source="SAdLbus_zGd10lb0x6KH-14" target="SAdLbus_zGd10lb0x6KH-17">
          <mxGeometry relative="1" as="geometry" />
        </mxCell>
        <mxCell id="SAdLbus_zGd10lb0x6KH-27" style="edgeStyle=orthogonalEdgeStyle;rounded=0;orthogonalLoop=1;jettySize=auto;html=1;" edge="1" parent="1" source="SAdLbus_zGd10lb0x6KH-21" target="SAdLbus_zGd10lb0x6KH-26">
          <mxGeometry relative="1" as="geometry" />
        </mxCell>
      </root>
    </mxGraphModel>
  </diagram>
</mxfile>
